<svg width="2689" height="804" viewBox="0 0 2689 804" fill="none" xmlns="http://www.w3.org/2000/svg">
<path d="M437.42 135.027L176.272 255.408L275.295 318.51L422.858 251.525L437.42 135.027Z" fill="#FFD2B1"/>
<path d="M626.728 299.094L437.42 135.027L437.923 264.655L528.62 343.708L626.728 299.094Z" fill="#FFB178"/>
<path d="M438.391 384.739L528.62 343.708L437.923 264.655L438.391 384.739Z" fill="#00E0FF"/>
<path d="M422.858 251.525L275.295 318.51L381.835 410.457L422.812 391.823L422.858 251.525Z" fill="#69EDFF"/>
<path d="M626.728 549.563V299.094L528.62 343.708L528.676 463.893L626.728 549.563Z" fill="#E3D1FF"/>
<path d="M438.391 384.739L528.676 463.893L528.62 343.708L438.391 384.739Z" fill="#FFF3B6"/>
<path d="M366.551 668.973L626.728 549.563L528.676 487.431L382.084 553.446L366.551 668.973Z" fill="#A167FF"/>
<path d="M381.835 410.457L381.959 481.952L382.084 553.446L528.676 487.431L422.812 391.823L381.835 410.457Z" fill="#FFE661"/>
<path d="M176.272 503.935L366.551 668.973V539.608L275.762 458.693L176.272 503.935Z" fill="#FFC7C7"/>
<path d="M275.762 458.693L366.551 539.608V417.408L275.762 458.693Z" fill="#C2FFA5"/>
<path d="M366.551 417.408L275.295 339.693L275.762 458.693L366.551 417.408Z" fill="#92FF5D"/>
<path d="M176.272 255.408V503.935L275.762 458.693L275.295 339.693L176.272 255.408Z" fill="#FF6868"/>
<path d="M2424.82 455.956C2419.08 461.701 2412.18 464.574 2404.14 464.574C2396.09 464.574 2389.2 461.701 2383.45 455.956C2377.71 450.21 2374.83 443.316 2374.83 435.272C2374.83 427.229 2377.71 420.334 2383.45 414.589C2389.2 408.843 2396.09 405.97 2404.14 405.97C2412.18 405.97 2419.08 408.843 2424.82 414.589C2430.57 420.334 2433.44 427.229 2433.44 435.272C2433.44 443.316 2430.57 450.21 2424.82 455.956Z" fill="#282828"/>
<path d="M2344.24 330.476H2305.28V402.179C2305.28 408.154 2306.78 412.521 2309.76 415.278C2312.75 418.036 2317.12 419.645 2322.86 420.105C2328.61 420.335 2335.73 420.22 2344.24 419.76V460.093C2313.67 463.54 2292.07 460.668 2279.43 451.475C2267.02 442.282 2260.81 425.85 2260.81 402.179V330.476H2230.82V287.729H2260.81V252.912L2305.28 239.468V287.729H2344.24V330.476Z" fill="#282828"/>
<path d="M2144.22 464.919C2118.25 464.919 2096.53 456.186 2079.06 438.719C2061.83 421.253 2053.21 399.65 2053.21 373.911C2053.21 348.171 2061.83 326.568 2079.06 309.102C2096.53 291.636 2118.25 282.903 2144.22 282.903C2160.99 282.903 2176.28 286.924 2190.06 294.968C2203.85 303.012 2214.31 313.813 2221.43 327.372L2183.17 349.78C2179.72 342.655 2174.44 337.025 2167.31 332.888C2160.42 328.751 2152.6 326.683 2143.87 326.683C2130.54 326.683 2119.51 331.164 2110.78 340.127C2102.04 348.86 2097.68 360.122 2097.68 373.911C2097.68 387.47 2102.04 398.731 2110.78 407.694C2119.51 416.427 2130.54 420.794 2143.87 420.794C2152.83 420.794 2160.76 418.84 2167.66 414.933C2174.78 410.796 2180.07 405.166 2183.51 398.042L2222.12 420.104C2214.54 433.663 2203.85 444.58 2190.06 452.853C2176.28 460.897 2160.99 464.919 2144.22 464.919Z" fill="#282828"/>
<path d="M1977.38 287.729H2021.85V460.092H1977.38V439.754C1964.05 456.53 1945.32 464.919 1921.18 464.919C1898.2 464.919 1878.44 456.186 1861.89 438.719C1845.57 421.023 1837.42 399.42 1837.42 373.911C1837.42 348.401 1845.57 326.913 1861.89 309.447C1878.44 291.751 1898.2 282.903 1921.18 282.903C1945.32 282.903 1964.05 291.291 1977.38 308.068V287.729ZM1895.33 409.073C1904.29 418.036 1915.67 422.517 1929.46 422.517C1943.25 422.517 1954.62 418.036 1963.59 409.073C1972.78 399.88 1977.38 388.159 1977.38 373.911C1977.38 359.662 1972.78 348.056 1963.59 339.093C1954.62 329.9 1943.25 325.304 1929.46 325.304C1915.67 325.304 1904.29 329.9 1895.33 339.093C1886.37 348.056 1881.89 359.662 1881.89 373.911C1881.89 388.159 1886.37 399.88 1895.33 409.073Z" fill="#282828"/>
<path d="M1774.37 317.377C1778.51 306.345 1785.29 298.072 1794.71 292.556C1804.36 287.041 1815.05 284.283 1826.77 284.283V333.923C1813.21 332.315 1801.03 335.073 1790.23 342.197C1779.65 349.321 1774.37 361.157 1774.37 377.704V460.094H1729.9V287.73H1774.37V317.377Z" fill="#282828"/>
<path d="M1567.17 392.181C1573.14 413.784 1589.35 424.586 1615.77 424.586C1632.78 424.586 1645.65 418.84 1654.38 407.349L1690.24 428.033C1673.23 452.623 1648.18 464.919 1615.09 464.919C1586.59 464.919 1563.72 456.3 1546.48 439.064C1529.25 421.828 1520.63 400.11 1520.63 373.911C1520.63 347.941 1529.13 326.338 1546.14 309.102C1563.15 291.636 1584.98 282.903 1611.64 282.903C1636.92 282.903 1657.72 291.636 1674.03 309.102C1690.58 326.568 1698.85 348.171 1698.85 373.911C1698.85 379.656 1698.28 385.746 1697.13 392.181H1567.17ZM1566.48 357.708H1654.38C1651.86 345.988 1646.57 337.255 1638.53 331.509C1630.71 325.764 1621.75 322.891 1611.64 322.891C1599.69 322.891 1589.81 325.993 1581.99 332.199C1574.18 338.174 1569.01 346.677 1566.48 357.708Z" fill="#282828"/>
<path d="M1414.41 336.68C1414.41 341.276 1417.4 345.068 1423.37 348.056C1429.58 350.814 1437.05 353.342 1445.78 355.64C1454.52 357.708 1463.25 360.466 1471.98 363.914C1480.71 367.131 1488.07 372.647 1494.04 380.46C1500.25 388.274 1503.35 398.042 1503.35 409.762C1503.35 427.458 1496.69 441.132 1483.36 450.785C1470.26 460.207 1453.83 464.919 1434.06 464.919C1398.67 464.919 1374.54 451.244 1361.67 423.896L1400.28 402.178C1405.33 417.116 1416.6 424.586 1434.06 424.586C1449.92 424.586 1457.85 419.644 1457.85 409.762C1457.85 405.166 1454.75 401.489 1448.54 398.731C1442.56 395.743 1435.21 393.1 1426.48 390.802C1417.74 388.504 1409.01 385.631 1400.28 382.184C1391.55 378.737 1384.08 373.336 1377.87 365.982C1371.9 358.398 1368.91 348.975 1368.91 337.714C1368.91 320.708 1375.11 307.378 1387.52 297.726C1400.16 287.844 1415.79 282.903 1434.41 282.903C1448.43 282.903 1461.18 286.12 1472.67 292.555C1484.16 298.76 1493.24 307.723 1499.9 319.444L1461.98 340.127C1456.47 328.407 1447.28 322.546 1434.41 322.546C1428.66 322.546 1423.83 323.81 1419.93 326.338C1416.25 328.866 1414.41 332.314 1414.41 336.68Z" fill="#282828"/>
<path d="M1264.94 336.68C1264.94 341.276 1267.93 345.068 1273.9 348.056C1280.11 350.814 1287.58 353.342 1296.31 355.64C1305.04 357.708 1313.78 360.466 1322.51 363.914C1331.24 367.131 1338.6 372.647 1344.57 380.46C1350.78 388.274 1353.88 398.042 1353.88 409.762C1353.88 427.458 1347.22 441.132 1333.89 450.785C1320.79 460.207 1304.35 464.919 1284.59 464.919C1249.2 464.919 1225.07 451.244 1212.2 423.896L1250.81 402.178C1255.86 417.116 1267.12 424.586 1284.59 424.586C1300.45 424.586 1308.38 419.644 1308.38 409.762C1308.38 405.166 1305.27 401.489 1299.07 398.731C1293.09 395.743 1285.74 393.1 1277.01 390.802C1268.27 388.504 1259.54 385.631 1250.81 382.184C1242.07 378.737 1234.6 373.336 1228.4 365.982C1222.42 358.398 1219.44 348.975 1219.44 337.714C1219.44 320.708 1225.64 307.378 1238.05 297.726C1250.69 287.844 1266.32 282.903 1284.93 282.903C1298.95 282.903 1311.71 286.12 1323.2 292.555C1334.69 298.76 1343.77 307.723 1350.43 319.444L1312.51 340.127C1307 328.407 1297.8 322.546 1284.93 322.546C1279.19 322.546 1274.36 323.81 1270.46 326.338C1266.78 328.866 1264.94 332.314 1264.94 336.68Z" fill="#282828"/>
<path d="M1067.92 392.181C1073.9 413.784 1090.1 424.586 1116.53 424.586C1133.53 424.586 1146.4 418.84 1155.14 407.349L1190.99 428.033C1173.98 452.623 1148.93 464.919 1115.84 464.919C1087.34 464.919 1064.47 456.3 1047.24 439.064C1030 421.828 1021.38 400.11 1021.38 373.911C1021.38 347.941 1029.89 326.338 1046.89 309.102C1063.9 291.636 1085.73 282.903 1112.39 282.903C1137.67 282.903 1158.47 291.636 1174.79 309.102C1191.33 326.568 1199.61 348.171 1199.61 373.911C1199.61 379.656 1199.03 385.746 1197.88 392.181H1067.92ZM1067.23 357.708H1155.14C1152.61 345.988 1147.32 337.255 1139.28 331.509C1131.47 325.764 1122.5 322.891 1112.39 322.891C1100.44 322.891 1090.56 325.993 1082.74 332.199C1074.93 338.174 1069.76 346.677 1067.23 357.708Z" fill="#282828"/>
<path d="M1004.38 330.476H965.423V402.179C965.423 408.154 966.917 412.521 969.904 415.278C972.892 418.036 977.259 419.645 983.004 420.105C988.75 420.335 995.874 420.22 1004.38 419.76V460.093C973.811 463.54 952.208 460.668 939.568 451.475C927.158 442.282 920.953 425.85 920.953 402.179V330.476H890.962V287.729H920.953V252.912L965.423 239.468V287.729H1004.38V330.476Z" fill="#282828"/>
<path d="M2404.08 564.533C2399.97 564.533 2396.51 563.623 2393.7 561.803C2390.89 559.944 2388.91 557.432 2387.77 554.267L2394.77 550.173C2396.39 554.405 2399.57 556.522 2404.32 556.522C2406.62 556.522 2408.3 556.106 2409.37 555.276C2410.43 554.445 2410.97 553.397 2410.97 552.131C2410.97 550.667 2410.31 549.54 2409.01 548.749C2407.7 547.918 2405.37 547.028 2402.01 546.078C2400.15 545.524 2398.57 544.971 2397.26 544.417C2395.99 543.863 2394.71 543.131 2393.4 542.221C2392.14 541.272 2391.17 540.085 2390.5 538.661C2389.82 537.237 2389.49 535.575 2389.49 533.677C2389.49 529.919 2390.81 526.932 2393.46 524.717C2396.15 522.462 2399.38 521.334 2403.13 521.334C2406.5 521.334 2409.44 522.165 2411.98 523.826C2414.55 525.448 2416.55 527.723 2417.97 530.65L2411.09 534.626C2409.42 531.066 2406.77 529.286 2403.13 529.286C2401.43 529.286 2400.09 529.681 2399.1 530.472C2398.15 531.224 2397.68 532.213 2397.68 533.439C2397.68 534.745 2398.21 535.813 2399.28 536.644C2400.39 537.435 2402.48 538.305 2405.57 539.254C2406.83 539.65 2407.78 539.966 2408.42 540.204C2409.09 540.402 2409.98 540.738 2411.09 541.213C2412.23 541.648 2413.1 542.063 2413.7 542.459C2414.33 542.854 2415.04 543.388 2415.83 544.061C2416.62 544.733 2417.22 545.426 2417.61 546.138C2418.05 546.85 2418.4 547.72 2418.68 548.749C2419 549.738 2419.16 550.825 2419.16 552.012C2419.16 555.849 2417.75 558.895 2414.94 561.15C2412.17 563.405 2408.55 564.533 2404.08 564.533Z" fill="#282828"/>
<path d="M2386.49 522.164V529.997H2375.27V563.701H2367.09V529.997H2355.93V522.164H2386.49Z" fill="#282828"/>
<path d="M2343.12 522.164H2351.31V563.701H2345.08L2327.28 538.304V563.701H2319.09V522.164H2325.32L2343.12 547.502V522.164Z" fill="#282828"/>
<path d="M2295.81 555.868H2313.32V563.701H2287.63V522.164H2313.02V529.997H2295.81V538.838H2311.54V546.552H2295.81V555.868Z" fill="#282828"/>
<path d="M2267.13 555.868H2282.97V563.701H2258.94V522.164H2267.13V555.868Z" fill="#282828"/>
<path d="M2246.01 563.701L2243.51 556.225H2226.96L2224.47 563.701H2215.63L2230.16 522.164H2240.31L2254.91 563.701H2246.01ZM2229.57 548.57H2240.96L2235.27 531.599L2229.57 548.57Z" fill="#282828"/>
<path d="M2217.75 522.164V529.997H2206.53V563.701H2198.34V529.997H2187.19V522.164H2217.75Z" fill="#282828"/>
<path d="M2149.63 522.164C2155.33 522.164 2160.08 524.162 2163.87 528.157C2167.71 532.153 2169.63 537.078 2169.63 542.933C2169.63 548.787 2167.71 553.713 2163.87 557.708C2160.08 561.703 2155.33 563.701 2149.63 563.701H2133.14V522.164H2149.63ZM2149.63 555.868C2153.23 555.868 2156.16 554.682 2158.41 552.308C2160.67 549.895 2161.8 546.77 2161.8 542.933C2161.8 539.096 2160.67 535.99 2158.41 533.617C2156.16 531.204 2153.23 529.997 2149.63 529.997H2141.32V555.868H2149.63Z" fill="#282828"/>
<path d="M2109.86 555.868H2127.36V563.701H2101.67V522.164H2127.07V529.997H2109.86V538.838H2125.58V546.552H2109.86V555.868Z" fill="#282828"/>
<path d="M2097.1 522.164V529.997H2085.88V563.701H2077.7V529.997H2066.54V522.164H2097.1Z" fill="#282828"/>
<path d="M2059.7 563.701L2057.21 556.225H2040.66L2038.17 563.701H2029.32L2043.86 522.164H2054.01L2068.61 563.701H2059.7ZM2043.27 548.57H2054.66L2048.96 531.599L2043.27 548.57Z" fill="#282828"/>
<path d="M2011.35 555.868H2027.19V563.701H2003.16V522.164H2011.35V555.868Z" fill="#282828"/>
<path d="M1979.88 555.868H1997.39V563.701H1971.69V522.164H1997.09V529.997H1979.88V538.838H1995.61V546.552H1979.88V555.868Z" fill="#282828"/>
<path d="M1958.03 563.701L1949.66 549.282H1943.43V563.701H1935.25V522.164H1951.86C1955.7 522.164 1958.96 523.509 1961.65 526.199C1964.34 528.889 1965.69 532.133 1965.69 535.931C1965.69 538.502 1964.95 540.895 1963.49 543.111C1962.03 545.286 1960.09 546.928 1957.68 548.036L1966.87 563.701H1958.03ZM1943.43 529.819V542.102H1951.86C1953.4 542.102 1954.73 541.509 1955.84 540.322C1956.94 539.096 1957.5 537.632 1957.5 535.931C1957.5 534.23 1956.94 532.786 1955.84 531.599C1954.73 530.412 1953.4 529.819 1951.86 529.819H1943.43Z" fill="#282828"/>
<path d="M1905.29 549.461V542.104H1927.54V549.461H1905.29Z" fill="#282828"/>
<path d="M1903.73 522.164V529.997H1892.51V563.701H1884.33V529.997H1873.17V522.164H1903.73Z" fill="#282828"/>
<path d="M1860.38 522.164H1868.57V563.701H1860.38V522.164Z" fill="#282828"/>
<path d="M1839.58 529.997H1822.96V539.847H1839.1V547.68H1822.96V563.701H1814.77V522.164H1839.58V529.997Z" fill="#282828"/>
<path d="M1802.73 558.302C1798.53 562.456 1793.43 564.533 1787.42 564.533C1781.41 564.533 1776.3 562.456 1772.11 558.302C1767.96 554.109 1765.88 548.986 1765.88 542.933C1765.88 536.881 1767.96 531.778 1772.11 527.624C1776.3 523.431 1781.41 521.334 1787.42 521.334C1793.43 521.334 1798.53 523.431 1802.73 527.624C1806.92 531.778 1809.02 536.881 1809.02 542.933C1809.02 548.986 1806.92 554.109 1802.73 558.302ZM1777.86 552.724C1780.44 555.256 1783.62 556.522 1787.42 556.522C1791.22 556.522 1794.4 555.256 1796.97 552.724C1799.54 550.153 1800.83 546.889 1800.83 542.933C1800.83 538.977 1799.54 535.714 1796.97 533.143C1794.4 530.571 1791.22 529.286 1787.42 529.286C1783.62 529.286 1780.44 530.571 1777.86 533.143C1775.29 535.714 1774.01 538.977 1774.01 542.933C1774.01 546.889 1775.29 550.153 1777.86 552.724Z" fill="#282828"/>
<path d="M1748.35 563.701H1739.04L1730.97 550.172L1722.9 563.701H1713.64L1726.34 542.399L1714.29 522.164H1723.55L1730.97 534.625L1738.38 522.164H1747.64L1735.59 542.339L1748.35 563.701Z" fill="#282828"/>
<path d="M1706.94 558.302C1702.75 562.456 1697.64 564.533 1691.63 564.533C1685.62 564.533 1680.52 562.456 1676.32 558.302C1672.17 554.109 1670.09 548.986 1670.09 542.933C1670.09 536.881 1672.17 531.778 1676.32 527.624C1680.52 523.431 1685.62 521.334 1691.63 521.334C1697.64 521.334 1702.75 523.431 1706.94 527.624C1711.13 531.778 1713.23 536.881 1713.23 542.933C1713.23 548.986 1711.13 554.109 1706.94 558.302ZM1682.08 552.724C1684.65 555.256 1687.83 556.522 1691.63 556.522C1695.43 556.522 1698.61 555.256 1701.19 552.724C1703.76 550.153 1705.04 546.889 1705.04 542.933C1705.04 538.977 1703.76 535.714 1701.19 533.143C1698.61 530.571 1695.43 529.286 1691.63 529.286C1687.83 529.286 1684.65 530.571 1682.08 533.143C1679.51 535.714 1678.22 538.977 1678.22 542.933C1678.22 546.889 1679.51 550.153 1682.08 552.724Z" fill="#282828"/>
<path d="M1661.16 542.161C1664.8 544.258 1666.62 547.423 1666.62 551.655C1666.62 555.176 1665.38 558.064 1662.88 560.319C1660.39 562.574 1657.33 563.701 1653.69 563.701H1636.06V522.164H1652.44C1656 522.164 1658.99 523.272 1661.4 525.487C1663.85 527.663 1665.08 530.452 1665.08 533.854C1665.08 537.296 1663.77 540.065 1661.16 542.161ZM1652.44 529.819H1644.25V538.957H1652.44C1653.71 538.957 1654.75 538.522 1655.58 537.652C1656.45 536.781 1656.89 535.693 1656.89 534.388C1656.89 533.083 1656.47 531.995 1655.64 531.124C1654.81 530.254 1653.75 529.819 1652.44 529.819ZM1653.69 556.046C1655.07 556.046 1656.22 555.592 1657.13 554.682C1658.04 553.732 1658.49 552.546 1658.49 551.121C1658.49 549.737 1658.04 548.59 1657.13 547.68C1656.22 546.73 1655.07 546.256 1653.69 546.256H1644.25V556.046H1653.69Z" fill="#282828"/>
<path d="M1610.26 522.164C1615.95 522.164 1620.7 524.162 1624.5 528.157C1628.33 532.153 1630.25 537.078 1630.25 542.933C1630.25 548.787 1628.33 553.713 1624.5 557.708C1620.7 561.703 1615.95 563.701 1610.26 563.701H1593.76V522.164H1610.26ZM1610.26 555.868C1613.86 555.868 1616.78 554.682 1619.04 552.308C1621.29 549.895 1622.42 546.77 1622.42 542.933C1622.42 539.096 1621.29 535.99 1619.04 533.617C1616.78 531.204 1613.86 529.997 1610.26 529.997H1601.95V555.868H1610.26Z" fill="#282828"/>
<path d="M1577.87 522.164H1586.06V563.701H1579.83L1562.02 538.304V563.701H1553.84V522.164H1560.07L1577.87 547.502V522.164Z" fill="#282828"/>
<path d="M1540.9 563.701L1538.41 556.225H1521.85L1519.36 563.701H1510.52L1525.06 522.164H1535.2L1549.8 563.701H1540.9ZM1524.46 548.57H1535.86L1530.16 531.599L1524.46 548.57Z" fill="#282828"/>
<path d="M1494.42 564.533C1490.31 564.533 1486.85 563.623 1484.04 561.803C1481.23 559.944 1479.25 557.432 1478.11 554.267L1485.11 550.173C1486.73 554.405 1489.91 556.522 1494.66 556.522C1496.96 556.522 1498.64 556.106 1499.7 555.276C1500.77 554.445 1501.31 553.397 1501.31 552.131C1501.31 550.667 1500.65 549.54 1499.35 548.749C1498.04 547.918 1495.71 547.028 1492.35 546.078C1490.49 545.524 1488.91 544.971 1487.6 544.417C1486.33 543.863 1485.05 543.131 1483.74 542.221C1482.48 541.272 1481.51 540.085 1480.84 538.661C1480.16 537.237 1479.83 535.575 1479.83 533.677C1479.83 529.919 1481.15 526.932 1483.8 524.717C1486.49 522.462 1489.72 521.334 1493.47 521.334C1496.84 521.334 1499.78 522.165 1502.32 523.826C1504.89 525.448 1506.88 527.723 1508.31 530.65L1501.43 534.626C1499.76 531.066 1497.11 529.286 1493.47 529.286C1491.77 529.286 1490.43 529.681 1489.44 530.472C1488.49 531.224 1488.01 532.213 1488.01 533.439C1488.01 534.745 1488.55 535.813 1489.62 536.644C1490.72 537.435 1492.82 538.305 1495.91 539.254C1497.17 539.65 1498.12 539.966 1498.76 540.204C1499.43 540.402 1500.32 540.738 1501.43 541.213C1502.57 541.648 1503.44 542.063 1504.04 542.459C1504.67 542.854 1505.38 543.388 1506.17 544.061C1506.96 544.733 1507.56 545.426 1507.95 546.138C1508.39 546.85 1508.74 547.72 1509.02 548.749C1509.34 549.738 1509.5 550.825 1509.5 552.012C1509.5 555.849 1508.09 558.895 1505.28 561.15C1502.51 563.405 1498.89 564.533 1494.42 564.533Z" fill="#282828"/>
<path d="M1444.91 555.868H1460.75V563.701H1436.72V522.164H1444.91V555.868Z" fill="#282828"/>
<path d="M1423.79 563.701L1421.3 556.225H1404.74L1402.25 563.701H1393.41L1407.95 522.164H1418.09L1432.69 563.701H1423.79ZM1407.35 548.57H1418.75L1413.05 531.599L1407.35 548.57Z" fill="#282828"/>
<path d="M1381.19 522.164H1389.38V563.701H1383.15L1365.35 538.304V563.701H1357.16V522.164H1363.39L1381.19 547.502V522.164Z" fill="#282828"/>
<path d="M1345.12 558.302C1340.92 562.456 1335.82 564.533 1329.81 564.533C1323.79 564.533 1318.69 562.456 1314.5 558.302C1310.34 554.109 1308.27 548.986 1308.27 542.933C1308.27 536.881 1310.34 531.778 1314.5 527.624C1318.69 523.431 1323.79 521.334 1329.81 521.334C1335.82 521.334 1340.92 523.431 1345.12 527.624C1349.31 531.778 1351.41 536.881 1351.41 542.933C1351.41 548.986 1349.31 554.109 1345.12 558.302ZM1320.25 552.724C1322.82 555.256 1326.01 556.522 1329.81 556.522C1333.6 556.522 1336.79 555.256 1339.36 552.724C1341.93 550.153 1343.22 546.889 1343.22 542.933C1343.22 538.977 1341.93 535.714 1339.36 533.143C1336.79 530.571 1333.6 529.286 1329.81 529.286C1326.01 529.286 1322.82 530.571 1320.25 533.143C1317.68 535.714 1316.4 538.977 1316.4 542.933C1316.4 546.889 1317.68 550.153 1320.25 552.724Z" fill="#282828"/>
<path d="M1294.29 522.164H1302.48V563.701H1294.29V522.164Z" fill="#282828"/>
<path d="M1274.16 564.533C1270.05 564.533 1266.59 563.623 1263.78 561.803C1260.97 559.944 1258.99 557.432 1257.85 554.267L1264.85 550.173C1266.47 554.405 1269.65 556.522 1274.4 556.522C1276.7 556.522 1278.38 556.106 1279.45 555.276C1280.51 554.445 1281.05 553.397 1281.05 552.131C1281.05 550.667 1280.39 549.54 1279.09 548.749C1277.78 547.918 1275.45 547.028 1272.09 546.078C1270.23 545.524 1268.65 544.971 1267.34 544.417C1266.07 543.863 1264.79 543.131 1263.48 542.221C1262.22 541.272 1261.25 540.085 1260.58 538.661C1259.9 537.237 1259.57 535.575 1259.57 533.677C1259.57 529.919 1260.89 526.932 1263.54 524.717C1266.23 522.462 1269.46 521.334 1273.21 521.334C1276.58 521.334 1279.52 522.165 1282.06 523.826C1284.63 525.448 1286.63 527.723 1288.05 530.65L1281.17 534.626C1279.5 531.066 1276.85 529.286 1273.21 529.286C1271.51 529.286 1270.17 529.681 1269.18 530.472C1268.23 531.224 1267.76 532.213 1267.76 533.439C1267.76 534.745 1268.29 535.813 1269.36 536.644C1270.47 537.435 1272.56 538.305 1275.65 539.254C1276.91 539.65 1277.86 539.966 1278.5 540.204C1279.17 540.402 1280.06 540.738 1281.17 541.213C1282.31 541.648 1283.18 542.063 1283.78 542.459C1284.41 542.854 1285.12 543.388 1285.91 544.061C1286.7 544.733 1287.3 545.426 1287.69 546.138C1288.13 546.85 1288.48 547.72 1288.76 548.749C1289.08 549.738 1289.24 550.825 1289.24 552.012C1289.24 555.849 1287.83 558.895 1285.02 561.15C1282.25 563.405 1278.63 564.533 1274.16 564.533Z" fill="#282828"/>
<path d="M1244.73 522.164H1252.92V563.701H1246.68L1228.88 538.304V563.701H1220.69V522.164H1226.92L1244.73 547.502V522.164Z" fill="#282828"/>
<path d="M1197.42 555.868H1214.92V563.701H1189.23V522.164H1214.63V529.997H1197.42V538.838H1213.14V546.552H1197.42V555.868Z" fill="#282828"/>
<path d="M1181.49 522.164V563.701H1173.36V536.762L1161.67 556.046H1160.72L1149.03 536.821V563.701H1140.84V522.164H1149.27L1161.2 541.805L1173.06 522.164H1181.49Z" fill="#282828"/>
<path d="M1124.96 522.164H1133.15V563.701H1124.96V522.164Z" fill="#282828"/>
<path d="M1099.16 522.164C1104.86 522.164 1109.6 524.162 1113.4 528.157C1117.24 532.153 1119.16 537.078 1119.16 542.933C1119.16 548.787 1117.24 553.713 1113.4 557.708C1109.6 561.703 1104.86 563.701 1099.16 563.701H1082.66V522.164H1099.16ZM1099.16 555.868C1102.76 555.868 1105.69 554.682 1107.94 552.308C1110.2 549.895 1111.32 546.77 1111.32 542.933C1111.32 539.096 1110.2 535.99 1107.94 533.617C1105.69 531.204 1102.76 529.997 1099.16 529.997H1090.85V555.868H1099.16Z" fill="#282828"/>
<path d="M1069 563.701L1060.63 549.282H1054.4V563.701H1046.21V522.164H1062.83C1066.67 522.164 1069.93 523.509 1072.62 526.199C1075.31 528.889 1076.65 532.133 1076.65 535.931C1076.65 538.502 1075.92 540.895 1074.46 543.111C1073 545.286 1071.06 546.928 1068.64 548.036L1077.84 563.701H1069ZM1054.4 529.819V542.102H1062.83C1064.37 542.102 1065.7 541.509 1066.8 540.322C1067.91 539.096 1068.47 537.632 1068.47 535.931C1068.47 534.23 1067.91 532.786 1066.8 531.599C1065.7 530.412 1064.37 529.819 1062.83 529.819H1054.4Z" fill="#282828"/>
<path d="M1022.94 555.868H1040.44V563.701H1014.75V522.164H1040.14V529.997H1022.94V538.838H1038.66V546.552H1022.94V555.868Z" fill="#282828"/>
<path d="M995.236 522.164C999.231 522.164 1002.59 523.509 1005.32 526.199C1008.05 528.889 1009.42 532.192 1009.42 536.109C1009.42 540.025 1008.05 543.328 1005.32 546.018C1002.59 548.708 999.231 550.053 995.236 550.053H987.937V563.701H979.748V522.164H995.236ZM995.236 542.399C996.976 542.399 998.42 541.805 999.567 540.619C1000.71 539.392 1001.29 537.889 1001.29 536.109C1001.29 534.289 1000.71 532.786 999.567 531.599C998.42 530.412 996.976 529.819 995.236 529.819H987.937V542.399H995.236Z" fill="#282828"/>
<path d="M975.768 522.164L961.527 547.502V563.701H953.397V547.502L939.215 522.164H948.472L957.492 539.491L966.511 522.164H975.768Z" fill="#282828"/>
<path d="M927.048 522.164H935.177V563.701H927.048V546.493H911.62V563.701H903.431V522.164H911.62V538.66H927.048V522.164Z" fill="#282828"/>
</svg>
